<svg width="24" height="24" viewBox="0 0 24 24" fill="none" xmlns="http://www.w3.org/2000/svg">
<path d="M11.25 20.25H5.75C4.64543 20.25 3.75 19.3546 3.75 18.25V5.75C3.75 4.64543 4.64543 3.75 5.75 3.75H18.25C19.3546 3.75 20.25 4.64543 20.25 5.75V11.25" stroke="black" stroke-width="1.5" stroke-linecap="round"/>
<path d="M3.75 16.25L6.58579 13.41375C7.36683 12.63275 8.63317 12.63275 9.41421 13.41375L12 16" stroke="black" stroke-width="1.5" stroke-linecap="round"/>
<path d="M14.5 11.5C15.6046 11.5 16.5 10.6046 16.5 9.5C16.5 8.39543 15.6046 7.5 14.5 7.5C13.3954 7.5 12.5 8.39543 12.5 9.5C12.5 10.6046 13.3954 11.5 14.5 11.5Z" stroke="black" stroke-width="1.5"/>
<path d="M15.75 18.5H21.25" stroke="black" stroke-width="1.5" stroke-linecap="round"/>
<path d="M18.5 15.75V21.25" stroke="black" stroke-width="1.5" stroke-linecap="round"/>
</svg>
