<svg width="24" height="24" viewBox="0 0 24 24" fill="none" xmlns="http://www.w3.org/2000/svg">
<path fill-rule="evenodd" clip-rule="evenodd" d="M4.30523 9.50117C3.86611 9.76669 3.33777 10 2.75 10C2.33579 10 2 9.66421 2 9.25C2 8.83579 2.33579 8.5 2.75 8.5C2.94339 8.5 3.19298 8.42081 3.52907 8.21758C3.86431 8.01487 4.20974 7.73714 4.6035 7.41762C4.61402 7.40908 4.62458 7.40051 4.63519 7.3919C5.00222 7.09399 5.41507 6.7589 5.8368 6.50087C6.26916 6.23634 6.79252 6 7.375 6C7.96055 6 8.4868 6.23456 8.9231 6.49968C9.35333 6.76112 9.77246 7.10128 10.1437 7.40254L10.1623 7.41763C10.5569 7.73789 10.9012 8.01573 11.2347 8.21876C11.5694 8.42254 11.814 8.5 12 8.5C12.1825 8.5 12.4248 8.42337 12.7589 8.21931C13.0916 8.01613 13.4353 7.73823 13.8304 7.41763L13.8429 7.40749C14.216 7.10467 14.6381 6.76215 15.0723 6.49914C15.5104 6.23375 16.038 6 16.625 6C17.2062 6 17.7284 6.23708 18.1592 6.50135C18.5775 6.75799 18.9878 7.09104 19.3531 7.38759L19.3901 7.41761C19.7835 7.73684 20.1294 8.01452 20.4654 8.21711C20.8021 8.42013 21.0537 8.5 21.25 8.5C21.6642 8.5 22 8.83579 22 9.25C22 9.66421 21.6642 10 21.25 10C20.661 10 20.1315 9.76737 19.6908 9.50164C19.2509 9.23638 18.8247 8.89051 18.4488 8.58549L18.445 8.58239C18.0493 8.26129 17.7063 7.98331 17.3747 7.7799C17.0415 7.57542 16.8025 7.5 16.625 7.5C16.4335 7.5 16.1852 7.57875 15.8495 7.78211C15.5147 7.98491 15.1695 8.26266 14.7756 8.58237L14.7473 8.60535C14.3791 8.90413 13.9647 9.24053 13.5408 9.49944C13.1074 9.76413 12.5833 10 12 10C11.4153 10 10.8898 9.76496 10.4546 9.49999C10.0267 9.23949 9.60936 8.90074 9.2393 8.6004L9.21708 8.58237C8.82269 8.26232 8.47811 7.9845 8.14415 7.78157C7.80905 7.57794 7.56305 7.5 7.375 7.5C7.19444 7.5 6.95344 7.57616 6.61965 7.78038C6.28742 7.98365 5.94399 8.26158 5.54867 8.58238L5.53954 8.58978C5.16532 8.89346 4.74163 9.23728 4.30523 9.50117ZM4.30523 17.5012C3.86611 17.7667 3.33777 18 2.75 18C2.33579 18 2 17.6642 2 17.25C2 16.8358 2.33579 16.5 2.75 16.5C2.94339 16.5 3.19298 16.4208 3.52907 16.2176C3.86431 16.0149 4.20974 15.7371 4.6035 15.4176L4.6352 15.3919C5.00223 15.094 5.41507 14.7589 5.8368 14.5009C6.26916 14.2363 6.79252 14 7.375 14C7.96055 14 8.4868 14.2346 8.9231 14.4997C9.35334 14.7611 9.77247 15.1013 10.1437 15.4025L10.1623 15.4176C10.5569 15.7379 10.9012 16.0157 11.2347 16.2188C11.5694 16.4225 11.814 16.5 12 16.5C12.1825 16.5 12.4248 16.4234 12.7589 16.2193C13.0916 16.0161 13.4353 15.7382 13.8304 15.4176L13.8429 15.4075C14.216 15.1047 14.6381 14.7622 15.0723 14.4991C15.5104 14.2337 16.038 14 16.625 14C17.2062 14 17.7284 14.2371 18.1592 14.5014C18.5775 14.758 18.9878 15.091 19.3531 15.3876C19.3655 15.3976 19.3778 15.4076 19.3901 15.4176C19.7835 15.7368 20.1294 16.0145 20.4654 16.2171C20.8021 16.4201 21.0537 16.5 21.25 16.5C21.6642 16.5 22 16.8358 22 17.25C22 17.6642 21.6642 18 21.25 18C20.661 18 20.1315 17.7674 19.6908 17.5016C19.2509 17.2364 18.8247 16.8905 18.4488 16.5855L18.445 16.5824C18.0493 16.2613 17.7063 15.9833 17.3747 15.7799C17.0415 15.5754 16.8025 15.5 16.625 15.5C16.4335 15.5 16.1852 15.5788 15.8495 15.7821C15.5147 15.9849 15.1695 16.2627 14.7756 16.5824L14.7472 16.6054C14.3791 16.9041 13.9647 17.2405 13.5408 17.4994C13.1074 17.7641 12.5833 18 12 18C11.4153 18 10.8898 17.765 10.4546 17.5C10.0267 17.2395 9.60936 16.9007 9.2393 16.6004L9.21708 16.5824C8.82269 16.2623 8.47811 15.9845 8.14415 15.7816C7.80905 15.5779 7.56305 15.5 7.375 15.5C7.19444 15.5 6.95344 15.5762 6.61965 15.7804C6.28742 15.9837 5.94399 16.2616 5.54867 16.5824L5.53955 16.5898C5.16533 16.8935 4.74164 17.2373 4.30523 17.5012Z" fill="black"/>
</svg>
