<svg width="24" height="24" viewBox="0 0 24 24" fill="none" xmlns="http://www.w3.org/2000/svg">
<path d="M11 18C14.3137 18 17 15.3137 17 12C17 8.68629 14.3137 6 11 6C7.68629 6 5 8.68629 5 12C5 15.3137 7.68629 18 11 18Z" stroke="black" stroke-width="1.5" stroke-linecap="round"/>
<path d="M13.5977 6.5C14.3331 6.17841 15.1454 6 15.9994 6C19.3131 6 21.9994 8.68629 21.9994 12C21.9994 15.3137 19.3131 18 15.9994 18C15.1454 18 14.3331 17.8216 13.5977 17.5" stroke="black" stroke-width="1.5" stroke-linecap="round"/>
<path d="M11 22.25L11.0001 20.75M11.0001 3.25V1.75M3.75217 19.2478L4.8129 18.1872M4.81283 5.81285L3.75217 4.75219M0.75 12H2.25M10.8029 9C10.2923 9.88261 10 10.9074 10 12.0004C10 13.2271 10.3682 14.3679 11 15.3182" stroke="black" stroke-width="1.5" stroke-linecap="round"/>
</svg>
