<svg width="24" height="24" viewBox="0 0 24 24" fill="none" xmlns="http://www.w3.org/2000/svg">
<path d="M21.25 12C21.25 17.1086 17.1086 21.25 12 21.25C6.89137 21.25 2.75 17.1086 2.75 12C2.75 6.89137 6.89137 2.75 12 2.75C17.1086 2.75 21.25 6.89137 21.25 12Z" stroke="black" stroke-width="1.5"/>
<path d="M13 7.5C13 8.05228 12.5523 8.5 12 8.5C11.4477 8.5 11 8.05228 11 7.5C11 6.94772 11.4477 6.5 12 6.5C12.5523 6.5 13 6.94772 13 7.5Z" fill="black"/>
<path d="M17.5 12C17.5 12.5523 17.0523 13 16.5 13C15.9477 13 15.5 12.5523 15.5 12C15.5 11.4477 15.9477 11 16.5 11C17.0523 11 17.5 11.4477 17.5 12Z" fill="black"/>
<path d="M8.5 12C8.5 12.5523 8.05228 13 7.5 13C6.94772 13 6.5 12.5523 6.5 12C6.5 11.4477 6.94772 11 7.5 11C8.05228 11 8.5 11.4477 8.5 12Z" fill="black"/>
<path d="M13 16.5C13 17.0523 12.5523 17.5 12 17.5C11.4477 17.5 11 17.0523 11 16.5C11 15.9477 11.4477 15.5 12 15.5C12.5523 15.5 13 15.9477 13 16.5Z" fill="black"/>
<path d="M9.5251 8.11091C9.91562 8.50144 9.91562 9.1346 9.5251 9.52513C9.13457 9.91565 8.50141 9.91565 8.11088 9.52513C7.72036 9.1346 7.72036 8.50144 8.11088 8.11091C8.50141 7.72039 9.13457 7.72039 9.5251 8.11091Z" fill="black"/>
<path d="M15.8891 8.11091C16.2796 8.50144 16.2796 9.1346 15.8891 9.52513C15.4986 9.91565 14.8654 9.91565 14.4749 9.52513C14.0843 9.1346 14.0843 8.50144 14.4749 8.11091C14.8654 7.72039 15.4986 7.72039 15.8891 8.11091Z" fill="black"/>
<path d="M9.5251 14.4749C9.91562 14.8654 9.91562 15.4986 9.5251 15.8891C9.13457 16.2796 8.50141 16.2796 8.11088 15.8891C7.72036 15.4986 7.72036 14.8654 8.11088 14.4749C8.50141 14.0843 9.13457 14.0843 9.5251 14.4749Z" fill="black"/>
<path d="M15.8891 14.4749C16.2796 14.8654 16.2796 15.4986 15.8891 15.8891C15.4986 16.2796 14.8654 16.2796 14.4749 15.8891C14.0843 15.4986 14.0843 14.8654 14.4749 14.4749C14.8654 14.0843 15.4986 14.0843 15.8891 14.4749Z" fill="black"/>
</svg>
