<svg width="24" height="24" viewBox="0 0 24 24" fill="none" xmlns="http://www.w3.org/2000/svg">
<path d="M8.14647 4.13783C8.34173 3.95406 8.65824 3.95406 8.8535 4.13783C9.04876 4.32161 9.04876 4.6195 8.8535 4.80328L5.207 8.23528L8.8535 11.6673C9.04876 11.8511 9.04876 12.1489 8.8535 12.3327L5.207 15.7647L8.8535 19.1967C9.04876 19.3805 9.04876 19.6784 8.8535 19.8622C8.65824 20.0459 8.34173 20.0459 8.14647 19.8622L4.14645 16.0974C3.95118 15.9137 3.95118 15.6158 4.14645 15.432L7.79295 12L4.14645 8.568C3.95118 8.38422 3.95118 8.08633 4.14645 7.90256L8.14647 4.13783ZM13.6465 4.13783C13.8418 3.95406 14.1583 3.95406 14.3535 4.13783C14.5488 4.32161 14.5488 4.6195 14.3535 4.80328L10.707 8.23528L14.3535 11.6673C14.5488 11.8511 14.5488 12.1489 14.3535 12.3327L10.707 15.7647L14.3535 19.1967C14.5488 19.3805 14.5488 19.6784 14.3535 19.8622C14.1583 20.0459 13.8418 20.0459 13.6465 19.8622L9.64647 16.0974C9.45121 15.9137 9.45121 15.6158 9.64647 15.432L13.293 12L9.64647 8.568C9.45121 8.38422 9.45121 8.08633 9.64647 7.90256L13.6465 4.13783ZM19.1465 4.13783C19.3418 3.95406 19.6583 3.95406 19.8536 4.13783C20.0488 4.32161 20.0488 4.6195 19.8536 4.80328L16.2071 8.23528L19.8536 11.6673C20.0488 11.8511 20.0488 12.1489 19.8536 12.3327L16.2071 15.7647L19.8536 19.1967C20.0488 19.3805 20.0488 19.6784 19.8536 19.8622C19.6583 20.0459 19.3418 20.0459 19.1465 19.8622L15.1465 16.0974C14.9512 15.9137 14.9512 15.6158 15.1465 15.432L18.793 12L15.1465 8.568C14.9512 8.38422 14.9512 8.08633 15.1465 7.90256L19.1465 4.13783Z" fill="black"/>
</svg>
