<svg preserveAspectRatio="none" width="100%" height="100%" overflow="visible" style="display: block;" viewBox="0 0 20 20" fill="none" xmlns="http://www.w3.org/2000/svg">
<g id="Union">
<path d="M8 20H4V16H8V20Z" fill="var(--fill-0, black)"/>
<path d="M16 20H12V16H16V20Z" fill="var(--fill-0, black)"/>
<path d="M4 16H0V12H4V16Z" fill="var(--fill-0, black)"/>
<path d="M12 8H16V12H12V16H8V12H4V8H8V4H12V8Z" fill="var(--fill-0, black)"/>
<path d="M20 16H16V12H20V16Z" fill="var(--fill-0, black)"/>
<path d="M4 8H0V4H4V8Z" fill="var(--fill-0, black)"/>
<path d="M20 8H16V4H20V8Z" fill="var(--fill-0, black)"/>
<path d="M8 4H4V0H8V4Z" fill="var(--fill-0, black)"/>
<path d="M16 4H12V0H16V4Z" fill="var(--fill-0, black)"/>
</g>
</svg>
