<svg width="24" height="24" viewBox="0 0 24 24" fill="none" xmlns="http://www.w3.org/2000/svg">
<path d="M7.11391 6C8.79458 6.00008 10.3094 6.72404 11.3781 7.88361C12.1783 8.75191 13.1915 9.50004 14.3578 9.50004C15.2634 9.50004 16.0868 9.01536 16.868 8.54671C17.4469 8.19937 18.121 8.0002 18.8407 8.00017C20.9995 8.00017 22.7497 9.7905 22.75 11.9995C22.75 14.2087 20.9997 15.9998 18.8407 15.9998C18.121 15.9998 17.4469 15.8006 16.8679 15.4533C16.0868 14.9846 15.2634 14.5 14.3579 14.5C13.1915 14.5 12.1784 15.2482 11.3781 16.1165C10.3095 17.2761 8.79468 17.9999 7.11391 18C3.8756 18 1.25015 15.3142 1.25 12.0005C1.25 8.68667 3.87551 6 7.11391 6Z" stroke="black" stroke-width="1.5"/>
</svg>
