<svg width="24" height="24" viewBox="0 0 24 24" fill="none" xmlns="http://www.w3.org/2000/svg">
<path d="M19.5 5.75C19.5 5.05964 18.9404 4.5 18.25 4.5H5.75C5.05964 4.5 4.5 5.05964 4.5 5.75V18.25C4.5 18.9404 5.05964 19.5 5.75 19.5H18.25C18.9404 19.5 19.5 18.9404 19.5 18.25V5.75ZM21 18.25C21 19.7688 19.7688 21 18.25 21H5.75C4.23122 21 3 19.7688 3 18.25V5.75C3 4.23122 4.23122 3 5.75 3H18.25C19.7688 3 21 4.23122 21 5.75V18.25Z" fill="black"/>
<path d="M18.9697 3.96973C19.2626 3.67684 19.7374 3.67684 20.0303 3.96973C20.3232 4.26262 20.3232 4.73738 20.0303 5.03028L5.03028 20.0303C4.73738 20.3232 4.26262 20.3232 3.96973 20.0303C3.67684 19.7374 3.67684 19.2626 3.96973 18.9697L18.9697 3.96973Z" fill="black"/>
<path d="M12.7197 3.21973C13.0126 2.92684 13.4874 2.92684 13.7803 3.21973C14.0732 3.51262 14.0732 3.98738 13.7803 4.28028L4.28028 13.7803C3.98738 14.0732 3.51262 14.0732 3.21973 13.7803C2.92684 13.4874 2.92684 13.0126 3.21973 12.7197L12.7197 3.21973Z" fill="black"/>
</svg>
