<svg width="24" height="24" viewBox="0 0 24 24" fill="none" xmlns="http://www.w3.org/2000/svg">
<path d="M13.85 6.99998C13.85 5.97825 13.0218 5.14997 12 5.14997C10.9783 5.14997 10.15 5.97825 10.15 6.99998C10.15 8.0217 10.9783 8.84998 12 8.84998C13.0218 8.84998 13.85 8.0217 13.85 6.99998Z" stroke="black" stroke-width="1.3"/>
<path d="M13.35 13C13.35 12.2544 12.7456 11.65 12 11.65C11.2544 11.65 10.65 12.2544 10.65 13C10.65 13.7456 11.2544 14.35 12 14.35C12.7456 14.35 13.35 13.7456 13.35 13Z" stroke="black" stroke-width="1.3"/>
<path d="M12.85 18C12.85 17.5305 12.4695 17.15 12 17.15C11.5306 17.15 11.15 17.5305 11.15 18C11.15 18.4694 11.5306 18.85 12 18.85C12.4695 18.85 12.85 18.4694 12.85 18Z" stroke="black" stroke-width="1.3"/>
<path d="M19.85 6.99998C19.85 5.97825 19.0218 5.14997 18 5.14997C16.9783 5.14997 16.15 5.97825 16.15 6.99998C16.15 8.0217 16.9783 8.84998 18 8.84998C19.0218 8.84998 19.85 8.0217 19.85 6.99998Z" stroke="black" stroke-width="1.3"/>
<path d="M19.35 13C19.35 12.2544 18.7456 11.65 18 11.65C17.2544 11.65 16.65 12.2544 16.65 13C16.65 13.7456 17.2544 14.35 18 14.35C18.7456 14.35 19.35 13.7456 19.35 13Z" stroke="black" stroke-width="1.3"/>
<path d="M18.85 18C18.85 17.5305 18.4695 17.15 18 17.15C17.5306 17.15 17.15 17.5305 17.15 18C17.15 18.4694 17.5306 18.85 18 18.85C18.4695 18.85 18.85 18.4694 18.85 18Z" stroke="black" stroke-width="1.3"/>
<path d="M7.85002 6.99998C7.85002 5.97825 7.02175 5.14997 6.00002 5.14997C4.9783 5.14997 4.15002 5.97825 4.15002 6.99998C4.15002 8.0217 4.9783 8.84998 6.00002 8.84998C7.02175 8.84998 7.85002 8.0217 7.85002 6.99998Z" stroke="black" stroke-width="1.3"/>
<path d="M7.35002 13C7.35002 12.2544 6.74561 11.65 6.00002 11.65C5.25444 11.65 4.65002 12.2544 4.65002 13C4.65002 13.7456 5.25444 14.35 6.00002 14.35C6.74561 14.35 7.35002 13.7456 7.35002 13Z" stroke="black" stroke-width="1.3"/>
<path d="M6.85002 18C6.85002 17.5305 6.46947 17.15 6.00002 17.15C5.53058 17.15 5.15002 17.5305 5.15002 18C5.15002 18.4694 5.53058 18.85 6.00002 18.85C6.46947 18.85 6.85002 18.4694 6.85002 18Z" stroke="black" stroke-width="1.3"/>
</svg>
