<svg width="600" height="600" viewBox="0 0 600 600" fill="none" xmlns="http://www.w3.org/2000/svg">
<defs>
  <clipPath id="circle-clip">
    <circle cx="300" cy="300" r="300"/>
  </clipPath>
</defs>
<circle cx="300" cy="300" r="300" fill="#000000"/>
<g clip-path="url(#circle-clip)">
<path d="M489.706 135.135C489.706 125.342 501.283 120.638 507.561 128.154C546.54 174.822 569.999 234.854 569.999 300.349C569.999 444.648 456.152 562.43 313.139 569.263C308.682 569.745 304.171 569.994 299.615 569.994C294.833 569.994 290.101 569.722 285.429 569.192C143.087 561.644 30.0004 444.166 30 300.349C30.0001 234.854 53.4591 174.822 92.4383 128.154C98.7158 120.638 110.293 125.342 110.293 135.135C110.293 137.765 109.346 140.303 107.669 142.33C89.752 163.988 75.4451 188.722 65.6631 215.617C60.815 228.947 76.9307 238.309 88.2785 229.8C90.2523 228.32 92.2421 226.86 94.2474 225.42C101.067 220.525 110.303 225.546 110.303 233.941C110.303 237.419 108.594 240.668 105.773 242.703C87.8773 255.611 71.3103 270.256 56.3149 286.394C52.7879 290.19 50.8008 295.168 50.8008 300.349C50.8009 361.689 73.0902 417.837 110.033 461.181C126.134 480.071 154.91 451.464 149.469 427.247C148.49 422.889 147.627 418.469 146.886 413.994C145.867 407.843 150.726 402.399 156.961 402.399C162.219 402.399 166.628 406.33 167.496 411.516C180.264 487.832 230.927 541.772 287.581 548.533C291.695 548.734 295.835 548.838 299.999 548.838C303.727 548.838 307.436 548.755 311.124 548.594C367.99 542.104 418.928 488.068 431.735 411.516C432.602 406.329 437.011 402.399 442.27 402.399C448.504 402.399 453.362 407.843 452.344 413.993C451.591 418.536 450.714 423.02 449.717 427.442C444.214 451.833 473.123 480.806 489.408 461.832C526.684 418.4 549.197 361.997 549.197 300.349C549.197 295.151 547.202 290.158 543.663 286.351C528.679 270.23 512.126 255.599 494.247 242.703C491.426 240.668 489.717 237.419 489.717 233.941C489.717 225.546 498.953 220.525 505.773 225.42C507.774 226.857 509.76 228.314 511.73 229.791C523.072 238.296 539.179 228.937 534.334 215.614C524.552 188.72 510.246 163.987 492.33 142.33C490.653 140.303 489.706 137.765 489.706 135.135Z" fill="#FFF679"/>
</g>
</svg>
