<svg width="600" height="600" viewBox="0 0 600 600" fill="none" xmlns="http://www.w3.org/2000/svg">
<defs>
  <clipPath id="circle-clip">
    <circle cx="300" cy="300" r="300"/>
  </clipPath>
</defs>
<circle cx="300" cy="300" r="300" fill="#000000"/>
<g clip-path="url(#circle-clip)">
<path d="M493.924 130.422C493.924 120.412 505.758 115.603 512.175 123.286C552.02 170.991 576.001 232.356 576.001 299.308C576.001 446.816 459.619 567.219 313.423 574.199C308.87 574.691 304.262 574.944 299.607 574.944C294.724 574.944 289.892 574.666 285.121 574.126C139.61 566.417 24.0022 446.325 24.002 299.308C24.002 232.356 47.9824 170.991 87.828 123.286C94.2448 115.603 106.079 120.412 106.079 130.422C106.079 133.11 105.111 135.705 103.397 137.776C85.0815 159.916 70.4565 185.2 60.4571 212.693C55.5013 226.319 71.9751 235.889 83.5752 227.191C85.593 225.678 87.6271 224.185 89.6772 222.714C96.648 217.71 106.089 222.843 106.089 231.423C106.089 234.979 104.342 238.3 101.458 240.38C83.1659 253.574 66.2319 268.545 50.9038 285.042C47.2981 288.922 45.2656 294.011 45.2656 299.308C45.2657 362.01 68.0501 419.406 105.813 463.713C122.272 483.023 151.687 453.781 146.125 429.025C145.124 424.571 144.242 420.053 143.485 415.478C142.443 409.191 147.41 403.626 153.783 403.626C159.158 403.626 163.665 407.644 164.552 412.945C177.603 490.957 229.392 546.095 287.305 553.007C291.511 553.213 295.744 553.317 300.001 553.317C303.81 553.317 307.6 553.233 311.369 553.068C369.5 546.437 421.571 491.2 434.663 412.945C435.55 407.644 440.057 403.626 445.432 403.626C451.805 403.626 456.771 409.191 455.73 415.478C454.961 420.121 454.064 424.706 453.045 429.225C447.42 454.159 476.971 483.776 493.618 464.38C531.723 419.983 554.737 362.326 554.737 299.308C554.737 293.994 552.697 288.89 549.079 284.998C533.762 268.519 516.841 253.563 498.565 240.38C495.681 238.3 493.935 234.979 493.935 231.423C493.935 222.843 503.375 217.71 510.346 222.714C512.393 224.182 514.423 225.672 516.438 227.183C528.032 235.877 544.498 226.31 539.544 212.69C529.545 185.198 514.921 159.915 496.606 137.776C494.892 135.705 493.924 133.11 493.924 130.422Z" fill="#FFF679"/>
</g>
</svg>
